<mxfile host="app.diagrams.net" agent="Mozilla/5.0 (Macintosh; Intel Mac OS X 10_15_7) AppleWebKit/537.36 (KHTML, like Gecko) Chrome/127.0.0.0 Safari/537.36" version="24.7.6">
  <diagram name="Page-1" id="4P97xUeVCvLIloOljrqZ">
    <mxGraphModel dx="968" dy="684" grid="1" gridSize="10" guides="1" tooltips="1" connect="1" arrows="1" fold="1" page="1" pageScale="1" pageWidth="850" pageHeight="1100" math="0" shadow="0">
      <root>
        <mxCell id="0" />
        <mxCell id="1" parent="0" />
        <mxCell id="jagAryBDiPTuuUjGZd-C-1" value="" style="rounded=0;whiteSpace=wrap;html=1;fillColor=#dae8fc;strokeColor=#6c8ebf;" vertex="1" parent="1">
          <mxGeometry x="320" y="200" width="160" height="200" as="geometry" />
        </mxCell>
        <mxCell id="jagAryBDiPTuuUjGZd-C-2" value="" style="rounded=0;whiteSpace=wrap;html=1;fillColor=#d5e8d4;strokeColor=#82b366;" vertex="1" parent="1">
          <mxGeometry x="320" y="400" width="160" height="160" as="geometry" />
        </mxCell>
        <mxCell id="jagAryBDiPTuuUjGZd-C-3" value="" style="rounded=0;whiteSpace=wrap;html=1;fillColor=#ffe6cc;strokeColor=#d79b00;" vertex="1" parent="1">
          <mxGeometry x="320" y="560" width="160" height="200" as="geometry" />
        </mxCell>
        <mxCell id="jagAryBDiPTuuUjGZd-C-23" style="edgeStyle=orthogonalEdgeStyle;rounded=0;orthogonalLoop=1;jettySize=auto;html=1;exitX=0;exitY=0.25;exitDx=0;exitDy=0;entryX=-0.006;entryY=0.106;entryDx=0;entryDy=0;entryPerimeter=0;dashed=1;" edge="1" parent="1" source="jagAryBDiPTuuUjGZd-C-4" target="jagAryBDiPTuuUjGZd-C-24">
          <mxGeometry relative="1" as="geometry">
            <mxPoint x="280" y="120" as="targetPoint" />
            <Array as="points">
              <mxPoint x="280" y="210" />
              <mxPoint x="280" y="57" />
            </Array>
          </mxGeometry>
        </mxCell>
        <mxCell id="jagAryBDiPTuuUjGZd-C-4" value="上一栈帧的 RBP" style="rounded=0;whiteSpace=wrap;html=1;fillColor=#dae8fc;strokeColor=#6c8ebf;" vertex="1" parent="1">
          <mxGeometry x="320" y="200" width="160" height="40" as="geometry" />
        </mxCell>
        <mxCell id="jagAryBDiPTuuUjGZd-C-22" style="edgeStyle=orthogonalEdgeStyle;rounded=0;orthogonalLoop=1;jettySize=auto;html=1;exitX=0;exitY=0.25;exitDx=0;exitDy=0;entryX=0;entryY=0.75;entryDx=0;entryDy=0;dashed=1;fillColor=#d5e8d4;strokeColor=#82b366;" edge="1" parent="1" source="jagAryBDiPTuuUjGZd-C-5" target="jagAryBDiPTuuUjGZd-C-4">
          <mxGeometry relative="1" as="geometry">
            <Array as="points">
              <mxPoint x="280" y="410" />
              <mxPoint x="280" y="230" />
            </Array>
          </mxGeometry>
        </mxCell>
        <mxCell id="jagAryBDiPTuuUjGZd-C-5" value="上一栈帧的 RBP" style="rounded=0;whiteSpace=wrap;html=1;fillColor=#d5e8d4;strokeColor=#82b366;" vertex="1" parent="1">
          <mxGeometry x="320" y="400" width="160" height="40" as="geometry" />
        </mxCell>
        <mxCell id="jagAryBDiPTuuUjGZd-C-21" style="edgeStyle=orthogonalEdgeStyle;rounded=0;orthogonalLoop=1;jettySize=auto;html=1;exitX=0;exitY=0.5;exitDx=0;exitDy=0;dashed=1;fillColor=#ffe6cc;strokeColor=#d79b00;" edge="1" parent="1" source="jagAryBDiPTuuUjGZd-C-6">
          <mxGeometry relative="1" as="geometry">
            <mxPoint x="320" y="430" as="targetPoint" />
            <Array as="points">
              <mxPoint x="320" y="570" />
              <mxPoint x="280" y="570" />
              <mxPoint x="280" y="430" />
              <mxPoint x="320" y="430" />
            </Array>
          </mxGeometry>
        </mxCell>
        <mxCell id="jagAryBDiPTuuUjGZd-C-6" value="上一栈帧的 RBP" style="rounded=0;whiteSpace=wrap;html=1;fillColor=#ffe6cc;strokeColor=#d79b00;" vertex="1" parent="1">
          <mxGeometry x="320" y="560" width="160" height="40" as="geometry" />
        </mxCell>
        <mxCell id="jagAryBDiPTuuUjGZd-C-7" value="返回地址 (bar)" style="rounded=0;whiteSpace=wrap;html=1;fillColor=#d5e8d4;strokeColor=#82b366;" vertex="1" parent="1">
          <mxGeometry x="320" y="520" width="160" height="40" as="geometry" />
        </mxCell>
        <mxCell id="jagAryBDiPTuuUjGZd-C-8" value="返回地址 (foo)" style="rounded=0;whiteSpace=wrap;html=1;fillColor=#dae8fc;strokeColor=#6c8ebf;" vertex="1" parent="1">
          <mxGeometry x="320" y="360" width="160" height="40" as="geometry" />
        </mxCell>
        <mxCell id="jagAryBDiPTuuUjGZd-C-9" value="" style="shape=curlyBracket;whiteSpace=wrap;html=1;rounded=1;flipH=1;labelPosition=right;verticalLabelPosition=middle;align=left;verticalAlign=middle;" vertex="1" parent="1">
          <mxGeometry x="490" y="200" width="20" height="200" as="geometry" />
        </mxCell>
        <mxCell id="jagAryBDiPTuuUjGZd-C-10" value="" style="shape=curlyBracket;whiteSpace=wrap;html=1;rounded=1;flipH=1;labelPosition=right;verticalLabelPosition=middle;align=left;verticalAlign=middle;" vertex="1" parent="1">
          <mxGeometry x="490" y="400" width="20" height="160" as="geometry" />
        </mxCell>
        <mxCell id="jagAryBDiPTuuUjGZd-C-11" value="" style="shape=curlyBracket;whiteSpace=wrap;html=1;rounded=1;flipH=1;labelPosition=right;verticalLabelPosition=middle;align=left;verticalAlign=middle;" vertex="1" parent="1">
          <mxGeometry x="490" y="560" width="20" height="200" as="geometry" />
        </mxCell>
        <mxCell id="jagAryBDiPTuuUjGZd-C-12" value="main 函数的栈帧" style="text;html=1;align=left;verticalAlign=middle;resizable=0;points=[];autosize=1;strokeColor=none;fillColor=none;" vertex="1" parent="1">
          <mxGeometry x="520" y="285" width="110" height="30" as="geometry" />
        </mxCell>
        <mxCell id="jagAryBDiPTuuUjGZd-C-13" value="foo 函数的栈帧" style="text;html=1;align=left;verticalAlign=middle;resizable=0;points=[];autosize=1;strokeColor=none;fillColor=none;" vertex="1" parent="1">
          <mxGeometry x="520" y="465" width="100" height="30" as="geometry" />
        </mxCell>
        <mxCell id="jagAryBDiPTuuUjGZd-C-14" value="bar 函数的栈帧" style="text;html=1;align=left;verticalAlign=middle;resizable=0;points=[];autosize=1;strokeColor=none;fillColor=none;" vertex="1" parent="1">
          <mxGeometry x="520" y="645" width="100" height="30" as="geometry" />
        </mxCell>
        <mxCell id="jagAryBDiPTuuUjGZd-C-15" value="" style="rounded=0;whiteSpace=wrap;html=1;fillColor=#ffe6cc;strokeColor=#d79b00;" vertex="1" parent="1">
          <mxGeometry x="320" y="720" width="160" height="40" as="geometry" />
        </mxCell>
        <mxCell id="jagAryBDiPTuuUjGZd-C-20" style="edgeStyle=orthogonalEdgeStyle;rounded=0;orthogonalLoop=1;jettySize=auto;html=1;exitX=1;exitY=0.5;exitDx=0;exitDy=0;entryX=0;entryY=0.75;entryDx=0;entryDy=0;dashed=1;fillColor=#f8cecc;strokeColor=#b85450;" edge="1" parent="1" source="jagAryBDiPTuuUjGZd-C-17" target="jagAryBDiPTuuUjGZd-C-6">
          <mxGeometry relative="1" as="geometry" />
        </mxCell>
        <mxCell id="jagAryBDiPTuuUjGZd-C-17" value="帧指针 RBP" style="text;html=1;align=center;verticalAlign=middle;whiteSpace=wrap;rounded=0;fillColor=#f8cecc;strokeColor=none;" vertex="1" parent="1">
          <mxGeometry x="120" y="640" width="80" height="40" as="geometry" />
        </mxCell>
        <mxCell id="jagAryBDiPTuuUjGZd-C-19" style="edgeStyle=orthogonalEdgeStyle;rounded=0;orthogonalLoop=1;jettySize=auto;html=1;exitX=1;exitY=0.5;exitDx=0;exitDy=0;entryX=0;entryY=0.5;entryDx=0;entryDy=0;dashed=1;fillColor=#e1d5e7;strokeColor=#9673a6;" edge="1" parent="1" source="jagAryBDiPTuuUjGZd-C-18" target="jagAryBDiPTuuUjGZd-C-15">
          <mxGeometry relative="1" as="geometry" />
        </mxCell>
        <mxCell id="jagAryBDiPTuuUjGZd-C-18" value="栈指针 RSP" style="text;html=1;align=center;verticalAlign=middle;whiteSpace=wrap;rounded=0;fillColor=#e1d5e7;strokeColor=none;" vertex="1" parent="1">
          <mxGeometry x="120" y="720" width="80" height="40" as="geometry" />
        </mxCell>
        <mxCell id="jagAryBDiPTuuUjGZd-C-24" value="更早的帧" style="rounded=0;whiteSpace=wrap;html=1;dashed=1;" vertex="1" parent="1">
          <mxGeometry x="320" y="40" width="160" height="160" as="geometry" />
        </mxCell>
        <mxCell id="jagAryBDiPTuuUjGZd-C-26" value="&lt;b&gt;e.g., main -&amp;gt; foo -&amp;gt; bar&lt;/b&gt;" style="text;html=1;align=left;verticalAlign=middle;resizable=0;points=[];autosize=1;strokeColor=none;fillColor=none;" vertex="1" parent="1">
          <mxGeometry x="520" y="200" width="150" height="30" as="geometry" />
        </mxCell>
      </root>
    </mxGraphModel>
  </diagram>
</mxfile>
